<svg xmlns="http://www.w3.org/2000/svg" width="1248" height="841" viewBox="0 0 1248 841">
<g>
<path d="M 625.42,803.89 C626.90,802.72 628.42,802.09 628.80,802.47 C629.66,803.32 626.15,806.00 624.17,806.00 C623.31,806.00 623.81,805.15 625.42,803.89 M 620.53,802.82 C620.13,801.54 619.61,799.63 619.38,798.57 C619.15,797.51 618.33,794.79 617.56,792.51 C616.79,790.24 615.41,785.49 614.51,781.94 C611.19,768.95 610.53,767.22 602.13,749.69 C594.74,734.26 586.50,721.62 578.75,713.83 C577.24,712.31 576.00,710.60 576.00,710.03 C576.00,709.47 575.51,709.00 574.90,709.00 C574.30,709.00 571.31,706.30 568.26,703.00 C565.21,699.70 562.27,697.00 561.72,697.00 C561.18,697.00 559.78,695.95 558.62,694.67 C556.07,691.86 537.43,679.27 527.00,673.31 C516.78,667.47 494.05,655.89 492.04,655.51 C491.15,655.34 487.51,653.59 483.96,651.62 C480.41,649.66 473.68,646.21 469.00,643.95 C449.21,634.40 397.14,608.36 393.00,605.93 C390.52,604.48 384.00,600.66 378.50,597.45 C373.00,594.24 365.69,589.68 362.25,587.31 C358.82,584.94 355.59,583.00 355.09,583.00 C354.58,583.00 354.02,582.64 353.83,582.20 C353.65,581.77 350.82,579.50 347.55,577.18 C344.28,574.85 339.11,570.82 336.07,568.22 C327.75,561.11 306.00,539.38 306.00,538.17 C306.00,537.59 305.19,536.53 304.20,535.81 C301.51,533.84 296.92,527.42 297.67,526.66 C298.04,526.30 297.80,526.00 297.15,526.00 C296.50,526.00 295.22,524.42 294.30,522.50 C293.38,520.58 292.32,519.00 291.93,519.00 C291.55,519.00 290.96,518.21 290.63,517.25 C290.30,516.29 289.15,514.15 288.08,512.50 C287.02,510.85 286.11,508.71 286.07,507.75 C286.03,506.79 285.55,506.00 285.00,506.00 C284.45,506.00 284.00,505.10 284.00,504.00 C284.00,502.90 283.55,502.00 283.00,502.00 C282.45,502.00 282.00,501.36 282.00,500.57 C282.00,499.79 281.41,498.55 280.68,497.82 C279.01,496.14 272.92,479.41 273.70,478.63 C274.02,478.31 273.83,477.47 273.28,476.77 C272.72,476.07 272.01,474.38 271.70,473.00 C271.39,471.62 270.65,468.70 270.05,466.50 C269.46,464.30 268.76,460.42 268.52,457.87 C268.27,455.32 267.62,451.27 267.07,448.87 C266.08,444.51 266.27,404.20 267.32,396.50 C267.62,394.30 268.53,386.80 269.36,379.82 C270.18,372.85 271.32,366.27 271.89,365.20 C273.19,362.78 276.58,361.79 277.94,363.43 C278.55,364.16 279.16,375.23 279.46,390.58 C279.99,418.84 280.95,426.52 286.19,444.50 C290.01,457.62 298.94,475.64 306.56,485.61 C313.69,494.94 326.26,507.16 337.75,515.93 C347.30,523.22 365.59,535.63 371.91,539.09 C373.88,540.17 377.98,542.42 381.00,544.08 C389.28,548.64 410.83,559.54 416.50,562.05 C419.25,563.27 424.88,565.82 429.00,567.72 C440.03,572.80 443.54,574.34 453.50,578.48 C471.34,585.91 494.78,597.19 518.00,609.52 C553.92,628.60 577.88,646.51 596.24,668.00 C603.52,676.53 614.24,691.95 617.93,699.23 C619.66,702.64 623.02,706.31 623.74,705.59 C624.04,705.29 623.72,704.36 623.02,703.52 C621.98,702.27 622.03,702.00 623.29,702.00 C624.14,702.00 625.01,702.53 625.22,703.17 C625.58,704.25 627.39,701.55 632.94,691.62 C634.96,688.01 643.20,676.49 648.23,670.25 C658.11,657.99 679.85,639.19 699.53,625.86 C720.37,611.76 763.27,589.61 794.25,576.94 C796.86,575.87 801.14,574.12 803.75,573.05 C806.36,571.99 817.27,567.67 828.00,563.46 C847.74,555.73 867.14,546.75 873.57,542.39 C875.51,541.07 877.41,539.97 877.79,539.93 C878.18,539.90 881.20,537.87 884.50,535.43 C887.80,532.99 892.10,530.14 894.05,529.08 C896.01,528.02 898.93,525.85 900.55,524.25 C902.17,522.65 905.08,520.29 907.00,519.00 C912.43,515.36 925.75,503.44 933.72,495.07 C937.69,490.91 942.30,486.10 943.97,484.39 C945.64,482.69 947.00,480.95 947.00,480.54 C947.00,480.12 949.19,477.02 951.87,473.64 C954.54,470.26 957.08,466.38 957.50,465.00 C957.92,463.62 959.33,460.37 960.64,457.76 C964.78,449.53 969.03,434.84 970.12,425.00 C970.69,419.77 971.35,407.85 971.58,398.50 C972.04,379.42 973.35,368.64 975.64,365.14 C978.62,360.60 979.00,362.09 982.16,390.50 C982.92,397.33 983.48,412.62 983.44,426.00 C983.40,446.52 983.10,450.83 981.13,460.00 C975.72,485.10 964.98,510.93 953.21,527.18 C931.75,556.81 908.53,577.75 875.00,597.69 C859.77,606.75 820.16,626.85 798.59,636.46 C751.73,657.33 748.88,658.72 717.01,676.51 C699.38,686.35 686.89,695.83 670.79,711.60 C651.23,730.76 642.35,746.21 630.04,782.49 C626.12,794.04 622.54,803.86 622.09,804.31 C621.64,804.76 620.94,804.09 620.53,802.82 M 627.56,587.29 C627.02,585.87 627.14,585.75 628.12,586.73 C628.81,587.41 629.11,588.22 628.81,588.53 C628.50,588.83 627.94,588.28 627.56,587.29 M 631.41,579.75 C631.77,575.21 632.56,568.01 633.15,563.74 C633.99,557.70 633.96,555.65 632.98,554.47 C631.43,552.61 632.18,535.42 633.88,533.72 C634.50,533.10 635.01,530.10 635.02,527.05 C635.02,524.00 635.47,520.83 636.00,520.00 C636.65,519.00 636.97,518.92 636.98,519.75 C637.00,521.31 639.64,521.40 640.58,519.87 C640.96,519.25 642.30,514.87 643.54,510.12 C648.76,490.31 650.11,485.93 654.01,476.20 C656.27,470.59 659.71,463.19 661.67,459.75 C666.98,450.42 683.00,417.92 683.00,416.47 C683.00,415.77 684.58,413.82 686.50,412.13 C688.42,410.44 690.00,408.40 690.00,407.59 C690.00,406.78 690.79,405.52 691.75,404.80 C694.56,402.70 698.00,397.26 698.00,394.92 C698.00,393.29 698.46,392.89 699.93,393.27 C701.42,393.66 702.64,392.51 705.34,388.14 C710.00,380.61 739.07,351.20 746.57,346.44 C755.15,340.98 760.29,336.77 771.06,326.34 C776.32,321.26 781.85,316.63 783.34,316.06 C784.83,315.49 786.38,314.16 786.78,313.09 C787.59,310.92 794.72,305.71 795.89,306.43 C796.30,306.69 798.71,304.92 801.23,302.50 C805.79,298.13 812.34,294.00 814.70,294.00 C816.15,294.00 818.53,290.05 818.17,288.25 C818.03,287.56 818.38,287.00 818.96,287.00 C819.94,287.00 820.43,288.45 820.08,290.37 C819.99,290.85 821.85,290.11 824.21,288.72 C826.57,287.34 830.52,285.10 833.00,283.74 C835.48,282.38 842.90,278.15 849.50,274.34 C872.32,261.17 894.62,251.76 922.50,243.53 C927.45,242.07 932.50,240.47 933.72,239.97 C934.94,239.48 940.79,237.90 946.72,236.47 C952.65,235.05 960.52,232.95 964.20,231.81 C971.01,229.72 975.47,229.93 973.17,232.23 C972.38,233.02 971.99,238.59 971.97,249.45 C971.89,296.43 964.28,329.50 944.48,369.05 C940.28,377.42 933.99,388.82 930.49,394.38 C904.72,435.36 852.33,480.85 794.97,512.06 C770.81,525.19 752.95,532.43 712.50,545.46 C697.65,550.25 681.67,555.58 677.00,557.31 C667.27,560.92 649.22,572.53 638.70,581.93 C634.96,585.27 631.64,588.00 631.32,588.00 C631.00,588.00 631.04,584.29 631.41,579.75 M 597.60,583.52 C595.45,582.76 593.43,581.73 593.10,581.25 C592.77,580.76 589.71,578.66 586.31,576.58 C582.91,574.49 579.35,571.94 578.40,570.89 C577.46,569.85 575.93,569.00 575.00,569.00 C574.07,569.00 572.49,568.10 571.49,566.99 C570.50,565.89 569.47,565.19 569.22,565.45 C568.97,565.70 566.33,564.35 563.36,562.45 C560.39,560.55 557.63,559.00 557.23,559.01 C556.83,559.01 551.55,556.57 545.50,553.57 C529.11,545.47 516.66,539.76 515.25,539.71 C514.56,539.69 514.00,539.35 514.00,538.95 C514.00,538.56 512.54,537.66 510.75,536.95 C505.62,534.90 451.40,507.80 442.13,502.65 C437.52,500.09 433.59,498.00 433.38,498.00 C432.98,498.00 423.16,491.79 410.81,483.73 C392.76,471.94 365.41,448.11 351.34,431.89 C342.31,421.50 325.00,398.71 325.00,397.23 C325.00,396.36 322.56,392.91 319.94,390.07 C319.08,389.14 318.55,387.84 318.77,387.19 C318.99,386.53 318.63,386.00 317.98,386.00 C317.32,386.00 317.03,385.36 317.33,384.57 C317.63,383.79 317.31,382.67 316.62,382.10 C315.27,380.98 307.69,366.05 306.55,362.25 C306.17,361.01 305.50,360.00 305.04,360.00 C304.59,360.00 303.91,358.31 303.52,356.25 C303.14,354.19 302.45,352.05 302.00,351.50 C300.59,349.78 293.65,329.30 289.62,314.96 C288.77,311.92 287.84,307.15 287.56,304.36 C287.29,301.57 286.52,297.98 285.85,296.39 C285.02,294.40 284.58,284.41 284.43,264.21 C284.25,239.64 284.45,234.69 285.68,233.46 C286.48,232.66 287.76,232.00 288.50,232.00 C293.80,232.00 340.38,246.39 351.50,251.47 C354.25,252.72 362.80,256.60 370.50,260.10 C384.61,266.50 400.09,274.74 418.50,285.68 C434.09,294.94 440.24,299.36 466.40,320.10 C486.50,336.05 521.10,372.87 529.66,387.44 C531.58,390.70 534.31,394.53 535.71,395.94 C542.89,403.12 567.14,444.42 574.63,462.19 C578.38,471.11 586.81,494.99 589.39,504.00 C592.14,513.64 599.14,540.03 599.54,542.31 C600.45,547.42 601.99,562.92 602.09,568.00 C602.18,572.27 602.38,572.94 603.00,571.00 C603.60,569.12 603.82,570.00 603.89,574.50 C603.98,580.68 603.25,585.03 602.13,584.96 C601.79,584.93 599.74,584.29 597.60,583.52 M 626.10,538.75 C625.63,537.51 624.46,534.02 623.49,531.00 C622.52,527.98 620.85,523.02 619.78,520.00 C618.71,516.98 617.38,512.48 616.81,510.00 C616.25,507.52 614.99,504.60 614.02,503.50 C613.05,502.40 612.46,500.94 612.71,500.25 C612.96,499.56 612.54,498.76 611.79,498.47 C611.02,498.18 610.31,496.29 610.19,494.22 C609.81,487.61 608.91,484.56 607.80,486.12 C607.03,487.20 606.93,487.12 607.37,485.77 C608.06,483.61 606.41,478.93 601.09,468.00 C596.59,458.73 594.94,455.82 593.66,454.89 C593.21,454.55 592.82,453.88 592.81,453.39 C592.80,452.90 591.03,448.74 588.89,444.15 C586.75,439.56 585.00,435.20 585.00,434.46 C585.00,433.72 584.59,432.86 584.09,432.55 C583.05,431.91 579.55,424.74 578.45,421.00 C578.05,419.62 576.88,416.93 575.86,415.01 C574.84,413.10 574.00,411.00 574.00,410.35 C574.00,409.70 573.66,409.02 573.25,408.83 C572.32,408.42 567.00,397.53 567.00,396.05 C567.00,394.75 564.83,390.74 563.66,389.89 C563.21,389.55 562.87,388.99 562.91,388.64 C563.21,386.43 562.84,384.98 561.68,383.82 C560.95,383.09 560.39,382.27 560.42,382.00 C560.49,381.47 555.65,369.75 550.89,358.92 C549.30,355.30 548.00,351.81 548.00,351.16 C548.00,350.51 547.57,349.19 547.04,348.24 C546.51,347.28 544.96,343.35 543.59,339.50 C540.27,330.14 536.47,321.12 535.48,320.23 C535.04,319.83 535.01,320.40 535.41,321.50 C535.81,322.60 536.80,326.43 537.62,330.00 C538.43,333.57 539.31,337.40 539.58,338.50 C540.66,342.97 535.69,332.30 533.37,325.17 C531.99,320.95 530.61,316.82 530.29,316.00 C529.97,315.18 529.81,313.31 529.92,311.85 C530.04,310.39 529.60,308.87 528.96,308.47 C528.07,307.92 528.08,307.57 529.00,307.00 C529.91,306.44 529.79,305.61 528.49,303.62 C527.49,302.09 527.00,300.06 527.33,298.75 L 527.90,296.50 L 526.12,298.64 C524.53,300.57 524.25,300.62 523.40,299.14 C522.88,298.24 522.31,292.55 522.13,286.50 C521.96,280.45 521.47,275.05 521.04,274.50 C519.85,272.96 519.70,258.70 520.89,259.43 C521.44,259.77 522.19,262.06 522.56,264.52 C522.92,266.99 523.56,269.00 523.97,269.00 C524.37,269.00 524.97,257.19 525.29,242.75 C526.17,203.12 527.70,193.39 538.09,161.50 C544.02,143.29 568.51,98.30 582.47,80.00 C587.93,72.83 599.65,55.57 601.57,51.87 C605.43,44.40 619.64,30.57 617.36,36.50 C616.99,37.46 617.38,38.00 618.44,38.00 C619.93,38.00 634.51,52.42 641.63,60.93 C655.82,77.90 671.98,104.49 687.59,136.50 C702.73,167.58 706.35,178.17 712.95,210.90 C718.91,240.46 720.47,263.11 717.98,284.00 C716.64,295.22 711.89,318.01 709.11,326.50 C706.30,335.12 695.47,362.45 692.08,369.50 C690.49,372.80 686.39,382.02 682.98,390.00 C679.56,397.98 670.48,418.22 662.79,434.99 C647.17,469.05 643.40,478.57 636.59,501.00 C634.01,509.52 631.41,517.62 630.83,519.00 C629.62,521.88 627.70,534.19 627.83,538.25 C627.94,541.58 627.25,541.78 626.10,538.75 M 527.49,295.01 C527.84,294.44 527.44,294.28 526.55,294.62 C524.82,295.28 524.50,296.00 525.94,296.00 C526.46,296.00 527.16,295.56 527.49,295.01 M 526.76,285.25 C526.24,282.09 525.68,278.15 525.52,276.50 C525.03,271.60 524.91,271.40 523.96,273.78 C522.88,276.45 525.80,291.00 527.41,291.00 C527.57,291.00 527.27,288.41 526.76,285.25 M 828.50,500.00 C828.84,499.45 829.32,499.00 829.56,499.00 C829.80,499.00 830.00,499.45 830.00,500.00 C830.00,500.55 829.52,501.00 828.94,501.00 C828.36,501.00 828.16,500.55 828.50,500.00 M 881.50,460.00 C882.50,458.90 883.53,458.00 883.81,458.00 C884.08,458.00 883.50,458.90 882.50,460.00 C881.50,461.10 880.47,462.00 880.19,462.00 C879.92,462.00 880.50,461.10 881.50,460.00 M 675.00,423.07 C675.00,420.81 677.09,416.93 677.99,417.50 C678.62,417.89 678.43,419.20 677.47,421.06 C675.94,424.03 675.00,424.79 675.00,423.07 M 937.00,398.00 C937.00,397.45 937.48,397.00 938.06,397.00 C938.64,397.00 938.84,397.45 938.50,398.00 C938.16,398.55 937.68,399.00 937.44,399.00 C937.20,399.00 937.00,398.55 937.00,398.00 M 542.51,384.18 C540.86,382.25 537.49,377.63 535.01,373.91 C524.73,358.50 492.66,325.83 473.50,311.27 C466.90,306.25 457.17,298.62 451.88,294.32 C446.59,290.02 439.67,284.93 436.51,283.00 C433.35,281.07 428.13,277.48 424.90,275.00 C421.68,272.52 417.12,269.06 414.77,267.29 C412.42,265.53 409.28,262.94 407.79,261.54 C406.31,260.15 404.80,259.00 404.45,259.00 C403.16,259.00 395.10,250.65 395.60,249.84 C395.88,249.38 395.64,249.00 395.06,249.00 C394.48,249.00 394.00,248.52 394.00,247.93 C394.00,246.46 391.44,244.01 389.82,243.94 C389.09,243.90 386.55,239.74 384.16,234.69 C377.38,220.35 374.56,215.00 373.78,215.00 C373.39,215.00 373.32,214.32 373.64,213.50 C373.95,212.68 373.72,212.00 373.11,212.00 C372.50,212.00 372.00,210.85 372.00,209.44 C372.00,207.74 371.61,207.12 370.83,207.61 C370.04,208.09 369.87,207.78 370.30,206.66 C370.65,205.75 370.47,205.00 369.91,205.00 C369.34,205.00 369.16,204.55 369.50,203.99 C369.85,203.44 369.42,202.28 368.56,201.42 C366.74,199.60 366.46,197.55 368.17,198.61 C368.97,199.10 369.12,198.77 368.65,197.53 C368.27,196.55 367.31,191.41 366.50,186.12 C364.87,175.37 365.15,148.52 367.02,136.50 C369.00,123.76 370.06,111.28 369.02,112.97 C368.49,113.82 368.04,113.88 367.59,113.14 C367.22,112.55 367.84,111.16 368.96,110.04 C371.39,107.61 371.64,105.54 369.42,106.39 C368.51,106.74 367.99,106.54 368.19,105.93 C368.39,105.33 368.95,104.91 369.44,104.99 C370.80,105.21 373.18,98.79 372.70,96.22 C372.46,94.96 372.48,94.14 372.74,94.40 C373.52,95.19 377.36,90.67 379.50,86.45 C382.12,81.28 383.75,81.16 399.10,84.99 C411.21,88.02 415.50,89.43 435.00,96.81 C446.92,101.32 465.36,111.08 476.99,119.05 C487.82,126.46 508.56,145.15 513.88,152.29 C521.67,162.74 522.16,165.33 519.44,182.00 C512.65,223.70 512.41,254.38 518.55,295.50 C523.58,329.23 526.84,340.50 542.51,378.33 C544.53,383.19 546.02,387.28 545.84,387.43 C545.65,387.57 544.15,386.11 542.51,384.18 M 706.00,379.82 C706.00,379.53 707.12,378.08 708.50,376.59 C709.88,375.11 711.00,374.29 711.00,374.77 C711.00,375.26 709.88,376.71 708.50,378.00 C707.12,379.29 706.00,380.11 706.00,379.82 M 948.50,378.00 C948.16,377.45 948.36,377.00 948.94,377.00 C949.52,377.00 950.00,377.45 950.00,378.00 C950.00,378.55 949.80,379.00 949.56,379.00 C949.32,379.00 948.84,378.55 948.50,378.00 M 713.00,371.27 C713.00,370.64 713.40,369.87 713.88,369.57 C714.37,369.27 715.07,367.00 715.44,364.52 C715.82,362.05 716.83,359.31 717.71,358.44 C719.56,356.59 721.15,349.21 719.87,348.42 C719.39,348.12 719.47,347.00 720.04,345.92 C720.62,344.84 720.81,343.50 720.46,342.94 C720.11,342.37 720.58,340.77 721.49,339.38 C722.40,337.98 722.91,336.20 722.61,335.42 C722.31,334.64 722.56,334.00 723.16,334.00 C723.86,334.00 724.05,332.72 723.69,330.50 C723.38,328.57 723.50,327.00 723.95,327.00 C724.96,327.00 725.76,322.76 726.49,313.50 C726.80,309.65 727.29,304.99 727.59,303.14 C727.89,301.29 728.56,295.21 729.09,289.64 C729.62,284.06 730.32,277.75 730.65,275.61 C731.13,272.49 730.98,271.88 729.88,272.51 C728.76,273.14 728.74,273.03 729.75,271.95 C731.23,270.35 731.53,244.86 730.10,242.18 C729.60,241.26 728.92,238.25 728.59,235.50 C728.16,231.96 728.26,231.08 728.94,232.50 C731.23,237.29 728.72,221.24 724.94,207.00 C723.56,201.76 722.08,189.25 721.36,176.58 C720.79,166.64 720.98,164.44 722.94,157.98 C724.16,153.95 726.17,149.17 727.40,147.36 C732.07,140.49 746.17,126.94 761.90,114.20 C762.78,113.49 766.65,110.92 770.50,108.50 C774.35,106.07 777.95,103.73 778.50,103.29 C781.24,101.09 785.09,99.00 786.39,99.00 C787.20,99.00 788.46,98.44 789.20,97.75 C791.95,95.20 812.57,85.88 820.50,83.60 C823.80,82.66 830.01,80.74 834.30,79.35 C838.58,77.95 843.53,76.58 845.30,76.31 C847.06,76.03 849.40,75.29 850.50,74.67 C851.60,74.04 854.63,73.03 857.23,72.41 C862.50,71.17 864.26,72.17 865.26,77.00 C865.54,78.38 867.62,87.67 869.88,97.65 C881.12,147.41 881.82,167.17 873.59,202.33 C871.38,211.78 863.30,227.86 855.66,238.00 C849.75,245.86 832.33,263.20 825.22,268.31 C823.54,269.52 817.97,273.91 812.84,278.09 C807.70,282.26 798.33,289.65 792.00,294.52 C759.74,319.33 745.21,333.35 721.01,363.00 C713.84,371.79 713.00,372.65 713.00,371.27 M 551.50,365.00 C551.84,364.45 552.32,364.00 552.56,364.00 C552.80,364.00 553.00,364.45 553.00,365.00 C553.00,365.55 552.52,366.00 551.94,366.00 C551.36,366.00 551.16,365.55 551.50,365.00 M 535.00,353.00 C535.00,352.45 535.45,352.00 536.00,352.00 C536.55,352.00 537.00,352.45 537.00,353.00 C537.00,353.55 536.55,354.00 536.00,354.00 C535.45,354.00 535.00,353.55 535.00,353.00 M 541.62,346.46 C540.66,343.95 540.94,343.30 542.12,345.33 C542.71,346.33 542.97,347.36 542.72,347.62 C542.46,347.88 541.97,347.36 541.62,346.46 M 526.06,320.11 C525.32,318.73 525.41,317.91 526.38,317.10 C527.44,316.22 527.69,316.60 527.61,318.99 C527.48,322.53 527.39,322.59 526.06,320.11 M 462.00,312.06 C462.00,311.54 462.38,310.89 462.83,310.60 C463.29,310.32 463.67,310.74 463.67,311.54 C463.67,312.34 463.29,313.00 462.83,313.00 C462.38,313.00 462.00,312.58 462.00,312.06 M 457.47,306.95 C457.11,306.38 456.08,305.98 455.16,306.07 C452.16,306.36 451.98,306.02 454.02,303.98 L 456.03,301.97 L 459.02,304.17 C461.16,305.76 461.65,306.60 460.75,307.17 C459.06,308.25 458.24,308.20 457.47,306.95 M 521.08,241.42 C521.13,240.25 521.36,240.01 521.68,240.81 C521.97,241.53 521.94,242.40 521.60,242.73 C521.27,243.06 521.04,242.47 521.08,241.42 M 864.00,238.62 C864.00,238.41 864.69,237.68 865.52,236.98 C866.80,235.92 866.94,235.99 866.42,237.36 C865.88,238.76 864.00,239.74 864.00,238.62 M 867.50,233.00 C867.84,232.45 868.32,232.00 868.56,232.00 C868.80,232.00 869.00,232.45 869.00,233.00 C869.00,233.55 868.52,234.00 867.94,234.00 C867.36,234.00 867.16,233.55 867.50,233.00 M 880.00,207.94 C880.00,207.36 880.45,207.16 881.00,207.50 C881.55,207.84 882.00,208.32 882.00,208.56 C882.00,208.80 881.55,209.00 881.00,209.00 C880.45,209.00 880.00,208.52 880.00,207.94 M 885.16,190.00 C885.16,188.62 885.38,188.06 885.66,188.75 C885.94,189.44 885.94,190.56 885.66,191.25 C885.38,191.94 885.16,191.38 885.16,190.00 M 884.00,186.00 C884.00,185.45 884.45,185.00 885.00,185.00 C885.55,185.00 886.00,185.45 886.00,186.00 C886.00,186.55 885.55,187.00 885.00,187.00 C884.45,187.00 884.00,186.55 884.00,186.00 M 886.93,165.75 C886.88,163.96 886.67,161.51 886.44,160.30 C886.21,159.09 886.47,157.83 887.01,157.49 C887.62,157.12 888.00,159.21 888.00,162.94 C888.00,169.15 887.06,171.61 886.93,165.75 M 881.50,131.00 C881.16,130.45 881.36,130.00 881.94,130.00 C882.52,130.00 883.00,130.45 883.00,131.00 C883.00,131.55 882.80,132.00 882.56,132.00 C882.32,132.00 881.84,131.55 881.50,131.00 M 879.36,123.50 C879.68,122.67 879.50,122.00 878.97,122.00 C878.44,122.00 878.00,121.55 878.00,121.00 C878.00,119.11 879.68,120.00 880.82,122.50 C881.77,124.59 881.70,125.00 880.37,125.00 C879.37,125.00 879.00,124.44 879.36,123.50 M 562.00,101.56 C562.00,100.70 562.45,100.00 563.00,100.00 C563.55,100.00 564.00,100.42 564.00,100.94 C564.00,101.46 563.55,102.16 563.00,102.50 C562.45,102.84 562.00,102.42 562.00,101.56 M 369.50,101.00 C369.84,100.45 370.32,100.00 370.56,100.00 C370.80,100.00 371.00,100.45 371.00,101.00 C371.00,101.55 370.52,102.00 369.94,102.00 C369.36,102.00 369.16,101.55 369.50,101.00 M 564.08,96.25 C564.65,94.74 566.01,92.60 567.10,91.50 C568.19,90.40 571.20,86.52 573.79,82.87 C579.93,74.23 589.02,63.15 592.55,60.00 C595.30,57.55 593.94,59.43 579.21,78.40 C575.74,82.85 571.02,89.31 568.71,92.75 C564.24,99.37 562.38,100.79 564.08,96.25 M 663.03,82.75 C660.60,78.76 657.07,73.47 655.19,71.00 L 651.77,66.50 L 656.34,71.50 C658.85,74.25 661.47,77.62 662.16,79.00 C662.84,80.38 664.35,82.85 665.52,84.50 C668.69,88.98 669.20,90.00 668.29,90.00 C667.83,90.00 665.47,86.74 663.03,82.75 M 375.50,88.00 C375.16,87.45 375.36,87.00 375.94,87.00 C376.52,87.00 377.00,87.45 377.00,88.00 C377.00,88.55 376.80,89.00 376.56,89.00 C376.32,89.00 375.84,88.55 375.50,88.00 M 866.67,75.33 C866.30,74.97 866.00,74.20 866.00,73.63 C866.00,73.01 866.47,73.07 867.18,73.78 C867.83,74.43 868.13,75.20 867.85,75.48 C867.57,75.77 867.03,75.70 866.67,75.33 M 641.78,55.26 C636.68,49.35 631.30,43.27 629.83,41.76 C626.73,38.57 627.58,38.09 631.23,40.97 C633.64,42.86 649.66,61.73 651.30,64.60 C653.27,68.05 650.39,65.22 641.78,55.26 Z" fill="rgba(0,0,0,1)"/>
</g>
</svg>